<?xml version="1.0" encoding="utf-8"?>
<!-- Generator: Adobe Illustrator 21.0.0, SVG Export Plug-In . SVG Version: 6.00 Build 0)  -->
<svg version="1.1" id="Layer_1" xmlns="http://www.w3.org/2000/svg" xmlns:xlink="http://www.w3.org/1999/xlink" x="0px" y="0px"
	 viewBox="0 0 15.1 11.5" style="enable-background:new 0 0 15.1 11.5;" xml:space="preserve">
<style type="text/css">
	.st0{fill:#FFFFFF;}
</style>
<path id="Icon_ionic-ios-checkmark" class="st0" d="M15,1.3l-1.2-1.3C13.7,0,13.6,0,13.6,0l0,0c-0.1,0-0.1,0-0.2,0.1L4.8,8.7
	L1.7,5.6c-0.1-0.1-0.3-0.1-0.4,0c0,0,0,0,0,0L0.1,6.8C0,6.9,0,7.1,0.1,7.2c0,0,0,0,0,0L4,11.1c0.2,0.2,0.5,0.4,0.8,0.4
	c0.3,0,0.6-0.2,0.8-0.4h0L15,1.8C15.1,1.6,15.1,1.5,15,1.3z"/>
</svg>
